<svg width="512" height="512" viewBox="0 0 512 512" fill="none" xmlns="http://www.w3.org/2000/svg">
<g clip-path="url(#clip0)">
<rect x="200" y="142" width="250" height="180" fill="#A226CE"/>
<rect x="160" y="172" width="250" height="180" fill="#2B9E21"/>
<rect x="120" y="212" width="250" height="180" fill="#F3A837"/>
<rect x="80" y="252" width="250" height="180" fill="#C82D2D"/>
<rect x="40" y="292" width="250" height="180" fill="#3190AE"/>
<path d="M40.1992 101C39.7305 99.0469 38.6758 97.9922 37.0352 97.8359H30.8242V66.5469H60.5898V97.8359H51.2148V101H86.3711C85.9023 99.0469 84.8477 97.9922 83.207 97.8359H76.9961V33.8516H86.3711V30.6875H51.2148V33.8516H60.5898V63.0312H30.8242V33.8516H40.1992V30.6875H5.04297V33.8516H14.418V97.8359H5.04297V101H40.1992ZM134.184 102.172C139.887 102.172 143.441 100.102 144.848 95.9609C145.316 94.3984 145.668 92.4062 145.902 89.9844L142.855 89.8672C142.387 95.2578 141.02 97.9922 138.754 98.0703C137.035 97.9141 136.176 95.9609 136.176 92.2109V67.7188C136.176 57.9531 131.645 51.9375 122.582 49.6719C120.238 49.125 117.699 48.8516 114.965 48.8516C104.34 48.8516 97.6602 51.1562 94.9258 55.7656C94.2227 56.9375 93.8711 58.1875 93.8711 59.5156C93.8711 62.5625 95.3164 64.4766 98.207 65.2578C98.9102 65.4922 99.6523 65.6094 100.434 65.6094C103.793 65.6094 106.059 63.9688 107.23 60.6875C107.387 60.2188 107.621 59.4375 107.934 58.3438C108.793 55.2188 109.887 53.2656 111.215 52.4844C112.074 52.0938 113.051 51.8984 114.145 51.8984C117.816 51.8984 120.043 54.125 120.824 58.5781C121.137 60.2188 121.293 62.1719 121.293 64.4375V72.0547C101.215 72.4453 91.1367 77.7578 91.0586 87.9922C91.0586 94.9453 94.1055 99.3984 100.199 101.352C101.996 101.898 103.988 102.172 106.176 102.172C112.816 102.172 117.699 99.6719 120.824 94.6719C121.449 93.6562 121.957 92.6016 122.348 91.5078C123.988 98.2266 127.934 101.781 134.184 102.172ZM112.27 97.1328C108.363 96.9766 106.371 93.5 106.293 86.7031C106.293 81.5469 108.402 78.1875 112.621 76.625C114.887 75.9219 117.777 75.4922 121.293 75.3359V86.7031C119.809 92.1719 117.426 95.5312 114.145 96.7812C113.441 97.0156 112.816 97.1328 112.27 97.1328ZM169.457 98.8906C174.691 98.8906 177.699 97.0156 178.48 93.2656C178.559 92.7188 178.598 92.2109 178.598 91.7422C178.598 87.7578 176.098 84.4375 171.098 81.7812C170.004 81.1562 168.246 80.3359 165.824 79.3203C159.965 76.7422 156.098 74.3594 154.223 72.1719C152.191 69.8281 151.176 67.0547 151.176 63.8516C151.176 57.2109 154.809 52.7188 162.074 50.375C165.121 49.3594 168.52 48.8516 172.27 48.8516C178.363 48.8516 183.129 49.9453 186.566 52.1328C186.566 49.7891 187.27 48.5 188.676 48.2656C188.988 48.1875 189.301 48.1484 189.613 48.1484V62.7969H185.863C185.551 55.6875 181.684 52.0938 174.262 52.0156C169.262 52.0156 166.176 53.6562 165.004 56.9375C164.77 57.7188 164.652 58.5 164.652 59.2812C164.652 62.6406 166.996 65.4922 171.684 67.8359C172.621 68.3828 174.184 69.125 176.371 70.0625C182.465 72.7969 186.527 75.2969 188.559 77.5625C190.902 80.2188 192.074 83.3828 192.074 87.0547C192.074 93.8516 188.559 98.4219 181.527 100.766C178.637 101.703 175.395 102.172 171.801 102.172C164.926 102.172 159.145 100.961 154.457 98.5391C154.457 100.57 153.949 101.742 152.934 102.055C152.465 102.133 151.918 102.172 151.293 102.172V84.3594H155.277C155.434 93.9688 160.16 98.8125 169.457 98.8906ZM256.293 97.9531H252.309V50.6094H231.684V53.6562H237.426L237.309 83.1875C236.762 89.2812 234.535 93.3047 230.629 95.2578C229.457 95.8047 228.285 96.0781 227.113 96.0781C222.66 96.0781 220.043 93.4609 219.262 88.2266C219.105 87.2109 219.027 86.1562 219.027 85.0625V50.6094H197.348V53.6562H204.145V83.0703C204.301 95.7266 209.887 102.094 220.902 102.172C227.934 102.172 233.285 99.0469 236.957 92.7969C237.191 92.3281 237.426 91.8594 237.66 91.3906L238.246 101H259.105C259.105 99.2812 258.637 98.3047 257.699 98.0703C257.309 97.9922 256.84 97.9531 256.293 97.9531ZM278.559 97.8359L308.559 53.0703V50.6094H266.371L265.551 68.0703H268.48L272.465 59.3984C274.34 55.7266 276.918 53.8516 280.199 53.7734H294.145L262.855 98.4219V101H307.973L308.207 81.0781H305.16L302.699 90.3359C301.215 95.2578 298.051 97.7578 293.207 97.8359L293.559 97.9531L278.559 97.8359ZM356.02 102.172C361.723 102.172 365.277 100.102 366.684 95.9609C367.152 94.3984 367.504 92.4062 367.738 89.9844L364.691 89.8672C364.223 95.2578 362.855 97.9922 360.59 98.0703C358.871 97.9141 358.012 95.9609 358.012 92.2109V67.7188C358.012 57.9531 353.48 51.9375 344.418 49.6719C342.074 49.125 339.535 48.8516 336.801 48.8516C326.176 48.8516 319.496 51.1562 316.762 55.7656C316.059 56.9375 315.707 58.1875 315.707 59.5156C315.707 62.5625 317.152 64.4766 320.043 65.2578C320.746 65.4922 321.488 65.6094 322.27 65.6094C325.629 65.6094 327.895 63.9688 329.066 60.6875C329.223 60.2188 329.457 59.4375 329.77 58.3438C330.629 55.2188 331.723 53.2656 333.051 52.4844C333.91 52.0938 334.887 51.8984 335.98 51.8984C339.652 51.8984 341.879 54.125 342.66 58.5781C342.973 60.2188 343.129 62.1719 343.129 64.4375V72.0547C323.051 72.4453 312.973 77.7578 312.895 87.9922C312.895 94.9453 315.941 99.3984 322.035 101.352C323.832 101.898 325.824 102.172 328.012 102.172C334.652 102.172 339.535 99.6719 342.66 94.6719C343.285 93.6562 343.793 92.6016 344.184 91.5078C345.824 98.2266 349.77 101.781 356.02 102.172ZM334.105 97.1328C330.199 96.9766 328.207 93.5 328.129 86.7031C328.129 81.5469 330.238 78.1875 334.457 76.625C336.723 75.9219 339.613 75.4922 343.129 75.3359V86.7031C341.645 92.1719 339.262 95.5312 335.98 96.7812C335.277 97.0156 334.652 97.1328 334.105 97.1328ZM395.98 53.6562V50.6094H368.91V53.6562H373.832L387.426 93.0312C389.066 97.7188 390.707 100.414 392.348 101.117C393.129 101.43 394.105 101.586 395.277 101.586H399.145L410.043 67.7188L418.715 93.0312C420.277 97.4844 421.566 100.062 422.582 100.766C423.441 101.312 424.652 101.586 426.215 101.586H430.082L444.73 57.0547C446.137 54.9453 447.621 53.8125 449.184 53.6562C450.59 53.6562 451.332 53.0312 451.41 51.7812C451.488 51.3906 451.527 51 451.527 50.6094H434.887V53.6562H442.152L431.254 87.875L419.77 53.6562H426.801V50.6094H404.066L408.051 62.3281L400.316 87.7578L388.949 53.6562H395.98ZM496.996 102.172C502.699 102.172 506.254 100.102 507.66 95.9609C508.129 94.3984 508.48 92.4062 508.715 89.9844L505.668 89.8672C505.199 95.2578 503.832 97.9922 501.566 98.0703C499.848 97.9141 498.988 95.9609 498.988 92.2109V67.7188C498.988 57.9531 494.457 51.9375 485.395 49.6719C483.051 49.125 480.512 48.8516 477.777 48.8516C467.152 48.8516 460.473 51.1562 457.738 55.7656C457.035 56.9375 456.684 58.1875 456.684 59.5156C456.684 62.5625 458.129 64.4766 461.02 65.2578C461.723 65.4922 462.465 65.6094 463.246 65.6094C466.605 65.6094 468.871 63.9688 470.043 60.6875C470.199 60.2188 470.434 59.4375 470.746 58.3438C471.605 55.2188 472.699 53.2656 474.027 52.4844C474.887 52.0938 475.863 51.8984 476.957 51.8984C480.629 51.8984 482.855 54.125 483.637 58.5781C483.949 60.2188 484.105 62.1719 484.105 64.4375V72.0547C464.027 72.4453 453.949 77.7578 453.871 87.9922C453.871 94.9453 456.918 99.3984 463.012 101.352C464.809 101.898 466.801 102.172 468.988 102.172C475.629 102.172 480.512 99.6719 483.637 94.6719C484.262 93.6562 484.77 92.6016 485.16 91.5078C486.801 98.2266 490.746 101.781 496.996 102.172ZM475.082 97.1328C471.176 96.9766 469.184 93.5 469.105 86.7031C469.105 81.5469 471.215 78.1875 475.434 76.625C477.699 75.9219 480.59 75.4922 484.105 75.3359V86.7031C482.621 92.1719 480.238 95.5312 476.957 96.7812C476.254 97.0156 475.629 97.1328 475.082 97.1328Z" fill="black"/>
</g>
<defs>
<clipPath id="clip0">
<rect width="512" height="512" fill="white"/>
</clipPath>
</defs>
</svg>
