<?xml version="1.0" encoding="UTF-8" standalone="no"?>
<!-- Created with Inkscape (http://www.inkscape.org/) -->

<svg
   width="581.6"
   height="650.6"
   version="1.1"
   viewBox="0 0 581.6 650.6"
   id="svg14"
   xmlns="http://www.w3.org/2000/svg"
   xmlns:svg="http://www.w3.org/2000/svg">
  <defs
     id="defs18" />
  <g
     id="layer3"
     style="display:none">
    <rect
       style="fill:#000000"
       id="rect200"
       width="1019.5325"
       height="902.02704"
       x="-186.62628"
       y="-91.585121" />
  </g>
  <g
     id="layer2"
     style="display:inline">
    <ellipse
       style="fill:#ffffff;stroke-width:0.953617"
       id="path928"
       cx="304.99576"
       cy="333.50809"
       rx="242.78699"
       ry="247.10703" />
  </g>
  <g
     id="layer1"
     style="display:inline">
    <g
       transform="translate(-0.32,-0.2907)"
       id="g12">
      <path
         d="m 287.7,0.4558 c -5.225,0.6859 -10.3,1.232 -15.36,2.854 -2.919,0.9362 -5.548,2.358 -8.32,3.631 -6.188,2.841 -12.25,6.04 -18.24,9.28 -11.71,6.333 -23.49,12.53 -35.2,18.88 -47.36,25.67 -93.86,52.98 -139.5,81.56 -16.53,10.35 -33.08,21.16 -48.32,33.35 -6.466,5.173 -14.38,10.1 -17.78,17.98 -4.645,10.77 -4.617,23.38 -4.617,34.88 0,14.83 0.1427,29.68 0.3188,44.48 0.6456,54.28 0.001235,108.6 0.001235,162.9 0,13.99 -0.32,27.93 -0.32,41.92 0,13.48 0.5033,27.23 8.339,38.72 3.623,5.315 9.408,9.462 14.38,13.44 9.902,7.923 20.28,15.22 30.72,22.41 36.41,25.1 74.399995,48.45 113.299995,69.53 29.4,15.94 59,31.58 90.24,43.68 15.22,5.898 32.69,12.6 49.28,10.53 11.15,-1.389 21.94,-5.232 32.32,-9.382 14.13,-5.651 27.9,-12.31 41.28,-19.55 45.16,-24.42 88.52,-52.17 130.2,-82.06 14.33,-10.27 28.48,-20.75 42.24,-31.76 6.538,-5.232 14.94,-10.93 18.46,-18.75 3.232,-7.178 4.18601,-15.64 5.261,-23.36 1.962,-14.11 2.87,-28.36 3.491,-42.56 1.84,-42.03 2.624,-84.28 1.59,-126.4 -0.2144,-8.848 0.208,-17.71 -0.006,-26.56 -0.4384,-17.89 -0.9568,-35.85 -0.9568,-53.76 0,-7.161 -0.3328,-14.3 -0.32,-21.44 0.006,-4.524 0.688,-8.918 -0.1472,-13.44 -0.7072,-3.817 -2.63,-7.388 -4.234,-10.88 -1.021,-2.22 -1.859,-4.608 -3.091,-6.72 -1.939,-3.33 -4.864,-6.325 -7.328,-9.28 -1.994,-2.394 -3.92,-5.206 -6.333,-7.194 -3.011,-2.482 -6.611,-4.388 -9.907,-6.464 -7.181,-4.525 -14.48,-8.856 -21.76,-13.22 -30.4,-18.24 -61.05,-36.13 -91.84,-53.71 -32.96,-18.81 -65.84,-37.74 -99.2,-55.83 -5.411,-2.934 -10.91,-5.712 -16.32,-8.64 -5.381,-2.911 -11.07,-6.274 -16.96,-8.039 -2.254,-0.6753 -4.712,-0.6879 -7.04,-0.8511 -2.77,-0.1941 -5.54,-0.5205 -8.32,-0.1555 m 180.5,222.9 v 0.32 c -6.733,4.807 -14.58,8.499 -21.76,12.61 l -41.28,23.68 -15.68,9.011 c -1.296,0.7437 -4.141,3.122 -5.69,2.75 -0.9216,-0.2218 -1.248,-1.566 -1.635,-2.295 -1.037,-1.959 -2.131,-3.904 -3.344,-5.76 -4.234,-6.473 -9.661,-12.18 -15.57,-17.14 -15.52,-13.03 -35.98,-22.4 -56.32,-23.79 -7.164,-0.4906 -14.71,0.4269 -21.76,1.652 -45.27,7.861 -80.85,47.67 -82.87,93.68 -0.4496,10.27 1.084,20.55 3.963,30.4 2.73,9.331 7.32,18.3 12.9,26.24 8.342,11.88 19.6,21.5 32.09,28.8 12.94,7.558 28.16,12.77 43.2,13.43 21.1,0.9248 41.84,-8.093 58.88,-19.84 7.923,-5.459 15.28,-11.75 22.08,-18.55 1.978,-1.978 3.827,-4.051 5.747,-6.08 0.6944,-0.7328 1.507,-2.08 2.586,-2.24 1.658,-0.2496 4.336,2.01 5.747,2.781 5.021,2.758 9.968,5.677 15.04,8.336 8.634,4.531 17.08,9.456 25.6,14.21 12.54,7.002 25.19,13.9 37.44,21.4 -0.8096,2.749 -2.8,5.309 -4.374,7.68 -2.88,4.339 -5.818,8.634 -8.947,12.8 -13.81,18.38 -30.86,34.51 -50.36,46.74 -43.96,27.57 -99.04,35.65 -149.4,24.1 -40.67,-9.322 -78.5,-31.71 -105.3,-63.79 -9.172,-10.98 -17.6,-23.19 -23.72,-36.16 -15.98,-33.84 -21.49,-70.75 -17.9,-107.8 3.459,-35.74 14.86,-70.73 36.82,-99.52 45.91,-60.2 128.9,-85.76 201.6,-68.52 36.63,8.684 70.94,28.48 96.61,56.04 6.23,6.689 12.05,13.88 17.2,21.44 2.97,4.364 5.373,9.161 8.429,13.44 z"
         fill="#f89e59"
         id="path2" />
      <path
         d="M 4.711,481.9 C 3.092,478.265 2.593,441.52 2.593,325.9 2.593,158.7 1.8632,170 13.413,159 c 24.11,-22.88 137.2,-91.79 232.2,-141.5 26.69,-13.96 39.49,-17.82 52.58,-15.86 8.581,1.287 40.68,18.36 124.4,66.18 115.8,66.16 146.2,85.5 146.2,93.1 0,2.777 -100.2,60.32 -101.7,58.43 -0.6795,-0.8374 -4.321,-6.178 -8.092,-11.87 -9.27,-13.99 -31.84,-36.32 -46.65,-46.16 -36.3,-24.11 -69.56,-34.26 -112.3,-34.26 -41.89,0 -78.79,10.77 -113.2,33.06 -16.9,10.93 -44.25,39.5 -53.52,55.89 -32,56.59 -36.27,127 -11.31,186.2 4.774,11.32 5.59,14.74 3.885,16.3 -2.488,2.268 -116.5,68.17 -118,68.17 -0.5241,0 -1.906,-2.139 -3.071,-4.754 z"
         fill="#fbbb85"
         stroke-width="1.729"
         id="path4" />
      <path
         d="M 280.8,647.3 C 240.42,636.41 145.2,586.72 74,539.3 26.53,507.72 3.94,489.55 8.76,486.79 c 0.9225,-0.5281 18.18,-10.37 38.35,-21.87 57.51,-32.79 79.88,-46.3 80.37,-48.53 0.305,-1.41 1.288,-0.4415 3.124,3.078 4.987,9.56 20.76,29.16 32.49,40.37 58.37,55.8 148.7,69.87 222.7,34.67 19.7,-9.374 33.54,-19.38 50.68,-36.64 13.2,-13.29 28.62,-32.88 31.22,-39.65 0.5088,-1.326 -4.478,-4.747 -18.64,-12.79 -27.71,-15.73 -63.93,-35.71 -64.74,-35.71 -0.3784,0 -5.7,4.718 -11.83,10.48 -42.81,40.3 -85.15,46.55 -126.8,18.7 -40.47,-27.07 -54.02,-76.42 -32.69,-119 11.53,-23.04 31.55,-41.24 55.05,-50.06 9.107,-3.419 26.32,-6.778 34.72,-6.778 7.664,0 22.72,3.315 32.08,7.064 17.13,6.856 36.95,22.96 44.85,36.45 3.479,5.936 5.238,6.483 10.07,3.133 1.785,-1.238 18.1,-10.65 36.25,-20.92 42.1,-23.81 42.56,-24.11 41.79,-27.05 -0.3466,-1.325 0.007,-2.35 0.8102,-2.35 3.431,0 96.14,-53.26 98.03,-56.32 1.889,-3.056 4.668,-0.509 8.43,7.729 l 4.048,8.863 0.824,42.17 c 1.224,62.64 0.9709,163 -0.4918,195 -1.426,31.18 -3.945,54.88 -7.018,66.01 -2.736,9.914 -10.11,17.12 -41.31,40.42 -81.03,60.49 -166.7,110.7 -210.7,123.5 -12.62,3.665 -27.42,3.88 -39.67,0.5766 z"
         fill="#fbbb85"
         stroke-width="1.222"
         id="path6" />
      <path
         d="m 571.9,162.7 -104,60.14 c 0.1057,0.1514 0.1916,0.3186 0.2988,0.4688 v 0.3203 c -6.733,4.807 -14.58,8.499 -21.76,12.62 l -41.28,23.68 -15.68,9.01 c -1.296,0.7437 -4.141,3.122 -5.689,2.75 -0.0647,-0.0156 -0.0835,-0.1087 -0.1426,-0.1348 l -168.3,97.29 c 1.202,1.994 2.461,3.948 3.785,5.834 8.342,11.88 19.6,21.5 32.09,28.8 12.94,7.558 28.16,12.77 43.2,13.43 21.1,0.9248 41.84,-8.092 58.88,-19.84 7.923,-5.459 15.28,-11.75 22.08,-18.55 1.978,-1.978 3.828,-4.051 5.748,-6.08 0.6944,-0.7328 1.508,-2.08 2.586,-2.24 1.658,-0.2496 4.335,2.01 5.746,2.781 5.021,2.758 9.969,5.677 15.04,8.336 8.634,4.531 17.08,9.455 25.6,14.21 12.54,7.002 25.19,13.9 37.44,21.4 -0.8096,2.749 -2.799,5.308 -4.373,7.68 -2.88,4.339 -5.818,8.632 -8.947,12.8 -13.81,18.38 -30.86,34.51 -50.36,46.74 -43.96,27.57 -99.03,35.65 -149.4,24.1 -40.67,-9.322 -78.5,-31.7 -105.3,-63.79 -6.86,-8.209 -13.3,-17.11 -18.67,-26.51 l -122.9,71.03 c 0.3757,0.6224 0.6915,1.263 1.107,1.873 3.623,5.315 9.408,9.462 14.38,13.44 9.902,7.923 20.28,15.22 30.72,22.41 36.41,25.1 74.4,48.45 113.3,69.53 29.4,15.94 59.01,31.58 90.24,43.68 15.22,5.898 32.69,12.6 49.28,10.53 11.15,-1.389 21.94,-5.232 32.32,-9.383 14.13,-5.651 27.9,-12.31 41.28,-19.55 45.16,-24.42 88.52,-52.17 130.2,-82.06 14.33,-10.27 28.48,-20.75 42.24,-31.76 6.538,-5.232 14.94,-10.93 18.46,-18.75 3.232,-7.178 4.185,-15.64 5.26,-23.36 1.962,-14.11 2.871,-28.36 3.492,-42.56 1.84,-42.03 2.623,-84.28 1.59,-126.4 -0.2144,-8.848 0.2081,-17.71 -0.006,-26.56 -0.4384,-17.89 -0.957,-35.85 -0.957,-53.76 0,-7.161 -0.3331,-14.29 -0.3203,-21.44 0.006,-4.524 0.6887,-8.919 -0.1465,-13.44 -0.7072,-3.817 -2.631,-7.387 -4.234,-10.88 -1.021,-2.22 -1.86,-4.608 -3.092,-6.721 -0.2218,-0.3808 -0.5476,-0.7212 -0.793,-1.094 z"
         fill="#f89e59"
         id="path8" />
      <path
         d="M 269.7,643.4 C 217.76,625.19 131,578.07 60.2,529.7 34.1,511.85 13.3,495.93 10.76,491.87 c -1.351,-2.163 9.052,-8.818 58.1,-37.17 32.86,-18.99 60.18,-34.69 60.71,-34.88 0.5276,-0.1882 3.682,4.005 7.01,9.318 8.182,13.06 28.74,34.75 42.87,45.22 23.09,17.11 50.96,29.64 79.87,35.92 19.32,4.192 62.42,4.208 80.97,0.0306 40.96,-9.222 73.34,-27.03 99.41,-54.67 10.49,-11.12 28.79,-35.32 28.79,-38.07 0,-1.035 -36.3,-22.04 -73.06,-42.28 l -11.69,-6.436 -13.57,12.69 c -32.75,30.64 -65.73,40.84 -97.51,30.17 -7.396,-2.484 -18.44,-7.666 -24.53,-11.52 -11.14,-7.034 -30.35,-25.98 -30.25,-29.83 0.0401,-1.569 122.9,-73.79 162.3,-95.39 22.13,-12.14 80.02,-45.22 85.77,-49.01 3.803,-2.506 29.09,-17.48 56.18,-33.27 l 49.27,-28.71 3.895,8.132 c 3.854,8.045 3.907,9.168 4.978,104.8 1.457,130.1 -1.744,193.5 -10.72,212.4 -2.148,4.526 -9.789,11.62 -26.37,24.47 -74.95,58.11 -170.6,115.8 -217.2,131 -19.74,6.444 -34.99,6.067 -56.26,-1.392 z"
         fill="#f58634"
         stroke-width="1.729"
         id="path10" />
    </g>
  </g>
</svg>
