<?xml version="1.0" encoding="UTF-8"?>
<svg width="333" height="500" version="1.1" viewBox="0 0 40 60" xmlns="http://www.w3.org/2000/svg" xmlns:cc="http://creativecommons.org/ns#" xmlns:dc="http://purl.org/dc/elements/1.1/" xmlns:rdf="http://www.w3.org/1999/02/22-rdf-syntax-ns#">
 <style type="text/css">.st0{fill:#0acf83}.st1{fill:#a259ff}.st2{fill:#f24e1e}.st3{fill:#ff7262}.st4{fill:#1abcfe}</style>
 <title>Figma.logo</title>
 <desc>Created using Figma</desc>
 <g transform="translate(-80 -120)" stroke-width=".2">
  <path id="path0_fill" class="st0" d="m90 180c5.52 0 10-4.48 10-10v-10h-10c-5.52 0-10 4.48-10 10s4.48 10 10 10z"/>
  <path id="path1_fill" class="st1" d="m80 150c0-5.52 4.48-10 10-10h10v20h-10c-5.52 0-10-4.48-10-10z"/>
  <path id="path1_fill_1_" class="st2" d="m80 130c0-5.52 4.48-10 10-10h10v20h-10c-5.52 0-10-4.48-10-10z"/>
  <path id="path2_fill" class="st3" d="m100 120h10c5.52 0 10 4.48 10 10s-4.48 10-10 10h-10z"/>
  <path id="path3_fill" class="st4" d="m120 150c0 5.52-4.48 10-10 10s-10-4.48-10-10 4.48-10 10-10 10 4.48 10 10z"/>
 </g>
 <metadata>
  <rdf:RDF>
   <cc:Work rdf:about="">
    <dc:title>Figma.logo</dc:title>
   </cc:Work>
  </rdf:RDF>
 </metadata>
</svg>
