<?xml version="1.0" encoding="UTF-8"?>
<svg width="54" height="32.4" fill="none" version="1.1" viewBox="0 0 54 32.4" xmlns="http://www.w3.org/2000/svg">
 <g clip-path="url(#prefix__clip0)">
  <path d="m27 0c-7.2 0-11.7 3.6-13.5 10.8 2.7-3.6 5.85-4.95 9.45-4.05 2.05 0.513 3.52 2 5.15 3.65 2.65 2.69 5.71 5.8 12.4 5.8 7.2 0 11.7-3.6 13.5-10.8-2.7 3.6-5.85 4.95-9.45 4.05-2.05-0.513-3.52-2-5.15-3.65-2.65-2.69-5.71-5.8-12.4-5.8zm-13.5 16.2c-7.2 0-11.7 3.6-13.5 10.8 2.7-3.6 5.85-4.95 9.45-4.05 2.05 0.514 3.52 2 5.15 3.65 2.65 2.69 5.71 5.8 12.4 5.8 7.2 0 11.7-3.6 13.5-10.8-2.7 3.6-5.85 4.95-9.45 4.05-2.05-0.513-3.52-2-5.15-3.65-2.65-2.69-5.71-5.8-12.4-5.8z" clip-rule="evenodd" fill="#06b6d4" fill-rule="evenodd"/>
 </g>
 <defs>
  <clipPath id="prefix__clip0">
   <path d="m0 0h54v32.4h-54z" fill="#fff"/>
  </clipPath>
 </defs>
</svg>
