<?xml version="1.0" encoding="UTF-8"?>
<svg width="774" height="876" version="1.1" viewBox="0 0 774 876" xmlns="http://www.w3.org/2000/svg">
 <g>
  <path d="m387 0 387 219v438l-387 219-387-219v-438z" fill="#fff"/>
  <path d="m705 642-305 173v-134l190-105zm20.9-18.9v-361l-112 64.5v232zm-658 18.9 305 173v-134l-190-105zm-20.9-18.9v-361l112 64.5v232zm13.1-384 313-177v130l-200 110-1.6 0.9zm653 0-313-177v130l200 110 1.6 0.9z" fill="#8ed6fb"/>
  <path d="m373 649-188-103v-204l188 108zm26.8 0 188-103v-204l-188 108zm-202-331 188-104 188 104-188 109z" fill="#1c78c0"/>
 </g>
</svg>
